Coordinates
version=1
nRows=10
nColumns=33
inDegrees=yes

Units are S.I. units (second, meters, Newtons, ...)
Angles are in degrees.

endheader
time	ground_thorax_rot_x	ground_thorax_rot_y	ground_thorax_rot_z	ground_thorax_tx	ground_thorax_ty	ground_thorax_tz	clav_prot_r	clav_elev_r	scapula_abduction_r	scapula_elevation_r	scapula_upward_rot_r	scapula_winging_r	shoulder_elv_r	plane_of_elev_r	axial_rot_r	elbow_flexion_r	pro_sup_r	wrist_flex_r	wrist_dev_r	clav_prot_l	clav_elev_l	scapula_abduction_l	scapula_elevation_l	scapula_upward_rot_l	scapula_winging_l	shoulder_elv_l	plane_of_elev_l	axial_rot_l	elbow_flexion_l	pro_sup_l	wrist_flex_l	wrist_dev_l
      7.73000000	    -42.68623863	     -7.55718024	      4.79668465	    -67.23018504	    786.83179863	     -1.52731533	      6.55149730	    -45.00000000	     45.00000000	    -45.00000000	    -14.11103797	  -2606.82119457	  -1912.81858073	    147.59095154	   -148.10121487	   1808.52337303	     24.85050896	     16.95263939	     14.84335200	     16.08476025	     44.01889163	    -45.00000000	    -42.97237015	    -19.94744729	    438.13971632	  -2809.66701750	     31.60602702	     35.14726961	   -361.57764790	     46.05032096	     11.66651017	    -18.93470861
      7.74000000	    -42.73548641	     -7.77950128	      4.93712139	    -66.68172204	    787.00325538	     -1.41006454	      6.54328812	    -45.00000000	     45.00000000	    -45.00000000	    -14.42519286	  -2606.66567181	  -1912.81861780	    147.65195378	   -148.87428669	   1808.40176157	     25.06067065	     17.18308328	     14.89163880	     16.08480996	     43.91433818	    -45.00000000	    -42.93076690	    -19.88899536	    438.22230184	  -2809.91162524	     31.51491295	     34.27054875	   -361.59034452	     45.58627601	     11.33795564	    -18.81604212
      7.75000000	    -42.86328321	     -7.64213021	      4.63964491	    -66.36187197	    787.26225814	     -1.28146417	      6.64363522	    -45.00000000	     45.00000000	    -45.00000000	    -14.55297390	  -2606.63883915	  -1912.70284729	    147.43809967	   -149.12096218	   1808.43788694	     25.39969246	     17.12317963	     14.99626597	     16.00693145	     44.10298454	    -45.00000000	    -43.04693380	    -19.59931575	    438.24747986	  -2810.00700489	     31.48927435	     33.58447101	   -361.54112304	     45.28026502	     11.56802080	    -18.82031746
      7.76000000	    -42.90004236	     -7.68440576	      4.59580570	    -66.26926391	    787.58527432	     -1.15382893	      6.57533081	    -45.00000000	     45.00000000	    -45.00000000	    -14.47211979	  -2606.47156218	  -1912.68668618	    147.60777608	   -149.08164309	   1808.48882311	     25.64423031	     17.29315595	     14.91602829	     15.95529262	     44.18843060	    -45.00000000	    -43.02013351	    -19.26566181	    438.29407804	  -2810.20996168	     31.40487200	     33.09369397	   -361.58721789	     45.03559926	     11.40530562	    -18.76414913
      7.77000000	    -42.96623015	     -7.52854625	      4.34844038	    -66.37891189	    787.95605130	     -1.04211194	      6.59781016	    -45.00000000	     45.00000000	    -45.00000000	    -14.49316729	  -2606.52631366	  -1912.59727600	    147.39129400	   -148.64183101	   1808.62576363	     25.86297427	     17.30899557	     14.90383727	     15.84615477	     44.24444482	    -45.00000000	    -43.04282548	    -18.97774462	    438.32815439	  -2810.29390239	     31.45022385	     32.65348537	   -361.50872200	     44.87382014	     11.51815561	    -18.81946332
      7.78000000	    -42.94270056	     -7.62308132	      4.38907964	    -66.68187332	    788.35801401	     -0.95990500	      6.52818809	    -45.00000000	     45.00000000	    -45.00000000	    -14.38210921	  -2606.53031609	  -1912.44860491	    147.60123481	   -148.03066468	   1808.76504528	     25.94866717	     17.42746948	     14.77515294	     15.72106263	     44.10701509	    -45.00000000	    -42.89685247	    -18.61433175	    438.54632450	  -2810.40057686	     31.32887055	     32.24124607	   -361.66654181	     44.76861449	     11.46806052	    -18.81888974
      7.79000000	    -43.05214324	     -7.47904672	      4.13094112	    -67.16453992	    788.77240442	     -0.92246178	      6.53768856	    -45.00000000	     45.00000000	    -45.00000000	    -14.34219090	  -2606.66899970	  -1912.35891415	    147.37156167	   -147.26189270	   1808.97931167	     25.95133847	     17.46831521	     14.67335199	     15.56959108	     44.20419946	    -45.00000000	    -43.06052484	    -18.50315323	    438.58764200	  -2810.45088027	     31.39910819	     31.80646844	   -361.55114525	     44.66911608	     11.51634010	    -18.92129149
      7.80000000	    -43.04556490	     -7.58362883	      4.24494890	    -67.82368108	    789.19052670	     -0.93470900	      6.44772320	    -45.00000000	     45.00000000	    -45.00000000	    -14.18537440	  -2606.74094200	  -1912.25254402	    147.64965849	   -146.60388080	   1809.17007834	     25.83680532	     17.55753516	     14.50232906	     15.57278100	     44.29893844	    -45.00000000	    -42.95150957	    -18.31171499	    438.80083464	  -2810.53903395	     31.28904190	     31.50254760	   -361.56001230	     44.52374715	     11.49908434	    -19.02474951
      7.81000000	    -43.10533398	     -7.42238047	      4.03780518	    -68.65421731	    789.60894213	     -1.00131124	      6.46579664	    -45.00000000	     45.00000000	    -45.00000000	    -14.20690950	  -2606.98509152	  -1912.14770308	    147.34758508	   -145.84077486	   1809.29898853	     25.70577540	     17.58458617	     14.43066788	     15.43339334	     44.03187335	    -45.00000000	    -43.01683020	    -18.20568231	    438.95989216	  -2810.51997494	     31.36670054	     31.12179655	   -361.46099742	     44.36174120	     11.53297894	    -19.13699320
      7.82000000	    -43.23339993	     -7.52049341	      4.14488770	    -69.66845676	    790.03423283	     -1.11550192	      6.35822173	    -45.00000000	     45.00000000	    -45.00000000	    -14.01491504	  -2607.01607031	  -1912.12371172	    147.74793692	   -145.34271423	   1809.51099971	     25.47538701	     17.66665804	     14.21410393	     15.40092076	     44.63406636	    -45.00000000	    -43.24410648	    -18.33144748	    439.04606042	  -2810.67662347	     31.27307333	     30.87649701	   -361.29281927	     44.10182945	     11.51746601	    -19.32835369
